<svg width="100" height="55" viewBox="0 0 100 55" fill="none" xmlns="http://www.w3.org/2000/svg">
<path d="M51.6551 26.045H53.8716H57.058L49.3692 16.4167L41.6804 26.045H45.0745H47.0833H51.6551Z" fill="#71C2B7"/>
<path d="M49.3692 0L29.6969 19.4645L30.251 39.8988H51.655V29.0236H47.0833V35.327H34.6842L34.3379 21.2655L49.3692 6.37272L64.8854 21.404V35.327H56.9887V39.8988H69.4571V19.4645L49.3692 0Z" fill="#275A53"/>
<path d="M5.41958 53.2926H2.48259L1.99494 54.7223H0L2.87049 46.942H5.05384L7.92434 54.7223H5.90723L5.41958 53.2926ZM4.93193 51.8518L3.95663 48.9702L2.97024 51.8518H4.93193Z" fill="#16322E"/>
<path d="M10.5728 51.9737V54.7223H8.67764V46.8866H11.7476C12.6786 46.8866 13.3879 47.1193 13.8756 47.5848C14.3632 48.0429 14.607 48.6636 14.607 49.4468C14.607 49.9344 14.4962 50.3703 14.2745 50.7546C14.0603 51.1314 13.7389 51.4306 13.3103 51.6523C12.8818 51.8666 12.3609 51.9737 11.7476 51.9737H10.5728ZM11.537 50.4553C12.2981 50.4553 12.6786 50.1191 12.6786 49.4468C12.6786 48.7596 12.2981 48.416 11.537 48.416H10.5728V50.4553H11.537Z" fill="#16322E"/>
<path d="M20.4105 53.2926H17.4735L16.9859 54.7223H14.991L17.8615 46.942H20.0448L22.9153 54.7223H20.8982L20.4105 53.2926ZM19.9229 51.8518L18.9476 48.9702L17.9612 51.8518H19.9229Z" fill="#16322E"/>
<path d="M27.6917 54.7223L25.996 51.7631H25.5638V54.7223H23.6686V46.8866H26.9048C27.5255 46.8866 28.0501 46.9937 28.4786 47.208C28.9072 47.4223 29.2286 47.7178 29.4428 48.0946C29.6571 48.4641 29.7642 48.8889 29.7642 49.3692C29.7642 49.9381 29.6054 50.4221 29.2877 50.8211C28.9773 51.22 28.5229 51.4934 27.9245 51.6412L29.7864 54.7223H27.6917ZM25.5638 50.4664H26.7386C27.1154 50.4664 27.3925 50.3851 27.5698 50.2226C27.7471 50.0526 27.8358 49.8051 27.8358 49.48C27.8358 49.1697 27.7434 48.9259 27.5587 48.7485C27.3814 48.5712 27.108 48.4825 26.7386 48.4825H25.5638V50.4664Z" fill="#16322E"/>
<path d="M36.3613 46.8866V48.3939H34.2334V54.7223H32.3271V48.3939H30.2213V46.8866H36.3613Z" fill="#16322E"/>
<path d="M45.9877 46.942V54.7223H44.0926V49.8568L42.4079 54.7223H40.7677L39.072 49.8458V54.7223H37.1768V46.942H39.4931L41.61 52.3616L43.6825 46.942H45.9877Z" fill="#16322E"/>
<path d="M49.2083 48.3939V50.0342H51.8571V51.4639H49.2083V53.2039H52.1896V54.7223H47.3131V46.8866H52.1896V48.3939H49.2083Z" fill="#16322E"/>
<path d="M60.2426 54.7223H58.3474L55.1777 49.9123V54.7223H53.2825V46.8866H55.1777L58.3474 51.7409V46.8866H60.2426V54.7223Z" fill="#16322E"/>
<path d="M67.1982 46.8866V48.3939H65.0703V54.7223H63.164V48.3939H61.0583V46.8866H67.1982Z" fill="#16322E"/>
<path d="M77.0208 46.8866V54.7223H75.1145V51.4528H72.1443V54.7223H70.2491V46.8866H72.1443V49.9233H75.1145V46.8866H77.0208Z" fill="#16322E"/>
<path d="M80.1796 46.8866V51.4085C80.1796 51.9257 80.2942 52.321 80.5232 52.5943C80.7597 52.8677 81.0995 53.0044 81.5428 53.0044C81.9862 53.0044 82.3223 52.8677 82.5514 52.5943C82.7878 52.321 82.9061 51.9257 82.9061 51.4085V46.8866H84.8012V51.4085C84.8012 52.1473 84.6572 52.7717 84.369 53.2815C84.0808 53.7839 83.6856 54.1644 83.1831 54.423C82.6881 54.6742 82.1265 54.7999 81.4985 54.7999C80.8705 54.7999 80.3163 54.6742 79.8361 54.423C79.3558 54.1718 78.979 53.7913 78.7056 53.2815C78.4322 52.7717 78.2955 52.1473 78.2955 51.4085V46.8866H80.1796Z" fill="#16322E"/>
<path d="M93.0444 54.7223H91.1492L87.9795 49.9123V54.7223H86.0843V46.8866H87.9795L91.1492 51.7409V46.8866H93.0444V54.7223Z" fill="#16322E"/>
<path d="M100 46.8866V48.3939H97.8721V54.7223H95.9658V48.3939H93.86V46.8866H100Z" fill="#16322E"/>
</svg>
