<svg width="90" height="90" viewBox="0 0 90 90" fill="none" xmlns="http://www.w3.org/2000/svg">
<path d="M48.1584 43.5938H41.8416C35.8298 43.5938 30.9375 48.4861 30.9375 54.4978C30.9375 55.9294 31.2145 57.3272 31.7587 58.6505L32.1173 59.5209H32.4591C32.8922 57.6492 34.56 56.25 36.5625 56.25H37.9688C37.9688 54.6961 39.2273 53.4375 40.7812 53.4375C43.5319 55.2713 46.7634 56.2486 50.0695 56.25H52.0312H53.4375C55.44 56.25 57.1078 57.6492 57.5395 59.5209H57.8813L58.2398 58.6505C58.7855 57.3272 59.0625 55.9294 59.0625 54.4978C59.0625 48.4861 54.1702 43.5938 48.1584 43.5938Z" fill="#71C2B7"/>
<path d="M50.625 28.125C48.2991 28.125 46.4062 26.2322 46.4062 23.9062C46.4062 21.5803 48.2991 19.6875 50.625 19.6875C52.9509 19.6875 54.8438 21.5803 54.8438 23.9062C54.8438 26.2322 52.9509 28.125 50.625 28.125Z" fill="#71C2B7"/>
<path d="M52.6444 72.533L50.3789 71.9662L50.0541 70.6697C51.6909 69.667 52.9003 68.0344 53.2955 66.0952H53.4375C56.5397 66.0952 59.0625 63.5723 59.0625 60.4702C59.0625 57.368 56.5397 54.8452 53.4375 54.8452H52.0312H50.0695C47.0306 54.8452 44.0887 53.9536 41.5617 52.2689L41.2073 52.0312H40.7812C38.9503 52.0312 37.4034 53.2111 36.8212 54.8438H36.5625C33.4603 54.8438 30.9375 57.3666 30.9375 60.4688C30.9375 63.5709 33.4603 66.0938 36.5625 66.0938H36.7045C37.0997 68.0344 38.3091 69.667 39.9459 70.6683L39.6225 71.9634L37.3711 72.5231C31.9275 73.8787 28.125 78.7416 28.125 84.3511V88.5938H61.875V84.3764C61.8848 78.7669 58.0894 73.897 52.6444 72.533ZM56.25 60.4688C56.25 62.0198 54.9886 63.2812 53.4375 63.2812V57.6562C54.9886 57.6562 56.25 58.9177 56.25 60.4688ZM33.75 60.4688C33.75 58.9177 35.0114 57.6562 36.5625 57.6562V63.2812C35.0114 63.2812 33.75 62.0198 33.75 60.4688ZM43.1437 78.6178L40.4494 81.3122L39.7294 74.8364L40.2159 74.7155L43.1437 78.6178ZM45 80.7384L50.0428 85.7812H39.9572L45 80.7384ZM46.8562 78.6178L49.7826 74.7155L50.2692 74.8378L49.5492 81.3122L46.8562 78.6178ZM39.375 56.25C39.375 55.5947 39.8264 55.042 40.4339 54.8873C43.3266 56.7 46.6453 57.6562 50.0695 57.6562H50.625V64.6875C50.625 67.0134 48.7322 68.9062 46.4062 68.9062H43.5937C41.2678 68.9062 39.375 67.0134 39.375 64.6875V56.25ZM43.5937 71.7188H46.4062C46.7437 71.7188 47.0672 71.6653 47.392 71.6189L47.6916 72.817L45 76.4058L42.3084 72.817L42.608 71.6189C42.9328 71.6653 43.2562 71.7188 43.5937 71.7188ZM30.9375 84.3511C30.9375 80.415 33.383 76.9823 36.9872 75.6141L38.1164 85.7812H30.9375V84.3511ZM59.0625 85.7812H51.8836L53.0114 75.6211C56.6226 76.9922 59.0681 80.4333 59.0625 84.375V85.7812Z" fill="#16322E"/>
<path d="M73.125 29.5312H75.9375C76.7123 29.5312 77.3438 30.1627 77.3438 30.9375H80.1562C80.1562 28.6116 78.2634 26.7188 75.9375 26.7188V23.9062H73.125V26.7188C70.7991 26.7188 68.9062 28.6116 68.9062 30.9375C68.9062 33.2634 70.7991 35.1562 73.125 35.1562H75.9375C76.7123 35.1562 77.3438 35.7877 77.3438 36.5625C77.3438 37.3373 76.7123 37.9688 75.9375 37.9688H73.125C72.3502 37.9688 71.7188 37.3373 71.7188 36.5625H68.9062C68.9062 38.8884 70.7991 40.7812 73.125 40.7812V43.5938H75.9375V40.7812C78.2634 40.7812 80.1562 38.8884 80.1562 36.5625C80.1562 34.2366 78.2634 32.3438 75.9375 32.3438H73.125C72.3502 32.3438 71.7188 31.7123 71.7188 30.9375C71.7188 30.1627 72.3502 29.5312 73.125 29.5312Z" fill="#16322E"/>
<path d="M85.7812 26.7188L80.6062 19.8197L82.7972 17.6288C83.8153 16.612 84.375 15.2592 84.375 13.822C84.375 10.852 81.9605 8.4375 78.9905 8.4375H75.6956C73.5764 8.4375 71.7567 9.67922 70.8792 11.4638C70.5192 11.333 70.1353 11.25 69.7303 11.25H68.0822C66.2105 11.25 64.6875 12.773 64.6875 14.6447C64.6875 15.5517 65.0405 16.4039 65.6817 17.0452L68.4563 19.8197L63.2812 26.7188C61.4672 29.1375 60.4688 32.1342 60.4688 35.1562C60.4688 42.9103 66.7772 49.2188 74.5312 49.2188C82.2853 49.2188 88.5938 42.9103 88.5938 35.1562C88.5938 32.1342 87.5953 29.1375 85.7812 26.7188ZM67.5 14.6447C67.5 14.3241 67.7616 14.0625 68.0822 14.0625H69.7303C70.0509 14.0625 70.3125 14.3241 70.3125 14.6447V15.4688H73.125V14.6447V13.822C73.125 12.4031 74.2781 11.25 75.697 11.25H78.9919C80.4094 11.25 81.5625 12.4031 81.5625 13.822C81.5625 14.5083 81.2953 15.1537 80.8088 15.6403L78.1678 18.2812H70.8947L67.6702 15.0567C67.5619 14.9484 67.5 14.798 67.5 14.6447ZM74.5312 46.4062C68.3283 46.4062 63.2812 41.3592 63.2812 35.1562C63.2812 32.7389 64.08 30.3413 65.5312 28.4063L71.0156 21.0938H78.0469L83.5313 28.4063C84.9825 30.3398 85.7812 32.7389 85.7812 35.1562C85.7812 41.3592 80.7342 46.4062 74.5312 46.4062Z" fill="#16322E"/>
<path d="M47.8125 6.79078C47.8125 5.37188 48.9656 4.21875 50.3845 4.21875H50.8669C52.2844 4.21875 53.4375 5.37188 53.4375 6.79078C53.4375 7.47703 53.1703 8.1225 52.6838 8.60906L49.2188 12.0741V16.875H52.0312V13.2384L54.6722 10.5975C55.6903 9.58078 56.25 8.22797 56.25 6.79078C56.25 3.82078 53.8355 1.40625 50.8655 1.40625H50.3831C47.4145 1.40625 45 3.82078 45 6.79078V7.03125H47.8125V6.79078Z" fill="#16322E"/>
<path d="M32.3072 49.2187C32.8964 48.1584 33.6628 47.212 34.5572 46.4062H28.125V32.3437H16.875V46.4062H8.4375V29.5312H36.5625V44.9634C37.433 44.4796 38.3794 44.1168 39.375 43.8848V29.3315C41.7938 28.7029 43.5938 26.519 43.5938 23.9062V23.1693L25.8623 10.8942C23.8767 9.51884 21.1233 9.51884 19.1362 10.8942L1.40625 23.1721V23.909C1.40625 26.5218 3.20625 28.7043 5.625 29.3329V49.2187H32.3072ZM19.6875 35.1562H25.3125V46.4062H19.6875V35.1562ZM4.30172 24.5868L20.738 13.206C21.78 12.4846 23.2214 12.4846 24.262 13.206L40.6983 24.5854C40.3945 25.8102 39.2878 26.7187 37.9702 26.7187H7.02984C5.71359 26.7187 4.60547 25.8102 4.30172 24.5868Z" fill="#16322E"/>
</svg>
