<svg width="80" height="80" viewBox="0 0 80 80" fill="none" xmlns="http://www.w3.org/2000/svg">
<path d="M68.75 60H58.75V48.75H68.75V60Z" fill="#71C2B7"/>
<path d="M68.75 45H58.75V33.75H68.75V45Z" fill="#71C2B7"/>
<path d="M21.25 60H11.25V48.75H21.25V60Z" fill="#71C2B7"/>
<path d="M21.25 45H11.25V33.75H21.25V45Z" fill="#71C2B7"/>
<path d="M21.25 77.5H11.25V66.25H21.25V77.5Z" fill="#71C2B7"/>
<path d="M46.25 60H33.75V46.25H46.25V60Z" fill="#71C2B7"/>
<path d="M46.25 42.5H33.75V28.75H46.25V42.5Z" fill="#71C2B7"/>
<path d="M68.75 77.5H58.75V66.25H68.75V77.5Z" fill="#71C2B7"/>
<path d="M46.25 77.5H33.75V63.75H46.25V77.5Z" fill="#71C2B7"/>
<path d="M73.75 76.25V31.25H77.8088L72.2525 6.25H66.25V5C66.25 2.9325 64.5675 1.25 62.5 1.25H60C57.9325 1.25 56.25 2.9325 56.25 5V6.25H23.75V5C23.75 2.9325 22.0675 1.25 20 1.25H17.5C15.4325 1.25 13.75 2.9325 13.75 5V6.25H7.7475L2.19125 31.25H6.25V76.25H1.25V78.75H78.75V76.25H73.75ZM8.75 46.25H23.75V58.75H8.75V46.25ZM71.25 58.75H56.25V46.25H71.25V58.75ZM24.1012 23.75L25.9762 16.25H54.0238L55.8988 23.75H24.1012ZM48.75 58.75H31.25V43.75H48.75V58.75ZM48.75 41.25H31.25V26.25H48.75V41.25ZM26.25 26.25H28.75V76.25H26.25V26.25ZM31.25 61.25H48.75V76.25H31.25V61.25ZM51.25 26.25H53.75V76.25H51.25V26.25ZM56.25 61.25H71.25V76.25H56.25V61.25ZM71.25 43.75H56.25V31.25H71.25V43.75ZM58.75 5C58.75 4.31125 59.3112 3.75 60 3.75H62.5C63.1888 3.75 63.75 4.31125 63.75 5V10C63.75 10.6888 63.1888 11.25 62.5 11.25H60C59.3112 11.25 58.75 10.6888 58.75 10V5ZM16.25 5C16.25 4.31125 16.8112 3.75 17.5 3.75H20C20.6887 3.75 21.25 4.31125 21.25 5V10C21.25 10.6888 20.6887 11.25 20 11.25H17.5C16.8112 11.25 16.25 10.6888 16.25 10V5ZM9.7525 8.75H13.75V10C13.75 12.0675 15.4325 13.75 17.5 13.75H20C22.0675 13.75 23.75 12.0675 23.75 10V8.75H56.25V10C56.25 12.0675 57.9325 13.75 60 13.75H62.5C64.5675 13.75 66.25 12.0675 66.25 10V8.75H70.2475L74.6925 28.75H56.25V26.25H59.1012L55.9762 13.75H24.0238L20.8988 26.25H23.75V28.75H5.30875L9.7525 8.75ZM23.75 31.25V43.75H8.75V31.25H23.75ZM8.75 61.25H23.75V76.25H8.75V61.25Z" fill="#16322E"/>
</svg>
