<svg width="24" height="24" viewBox="0 0 24 24" fill="none" xmlns="http://www.w3.org/2000/svg">
<g clip-path="url(#clip0_15_53)">
<path d="M22.5 11.9555H1.5C0.672984 11.9555 0 12.6285 0 13.4555C0 14.2825 0.672984 14.9555 1.5 14.9555H22.5C23.327 14.9555 24 14.2825 24 13.4555C24 12.6285 23.327 11.9555 22.5 11.9555Z" fill="#747474"/>
<path d="M22.638 13.9745C22.367 13.8986 22.095 14.0525 22.02 14.3186L21.981 14.4556H2.01998L1.97999 14.3186C1.90499 14.0525 1.63101 13.9006 1.36199 13.9745C1.09598 14.0505 0.942978 14.3276 1.01901 14.5925L2.39699 19.4165C2.82398 20.9115 4.20801 21.9555 5.76201 21.9555H18.237C19.792 21.9555 21.175 20.9115 21.602 19.4165L22.98 14.5925C23.057 14.3275 22.903 14.0505 22.638 13.9745ZM5.76299 19.9555C5.09699 19.9555 4.50299 19.5085 4.32098 18.8675L3.67199 16.5935C3.59601 16.3275 3.74999 16.0515 4.01498 15.9755C4.28296 15.8995 4.55798 16.0545 4.63298 16.3195L5.28196 18.5935C5.34398 18.8065 5.54095 18.9565 5.76295 18.9565C6.03895 18.9565 6.26296 19.1805 6.26296 19.4565C6.26301 19.7325 6.03899 19.9555 5.76299 19.9555Z" fill="#747474"/>
<path d="M6.72299 21.0075C6.47601 20.8865 6.17699 20.9835 6.05198 21.2315L5.05199 23.2315C4.92899 23.4785 5.02898 23.7785 5.27601 23.9026C5.34899 23.9386 5.42502 23.9556 5.50002 23.9556C5.68302 23.9556 5.85904 23.8546 5.94702 23.6786L6.94701 21.6786C7.07001 21.4315 6.96998 21.1315 6.72299 21.0075Z" fill="#747474"/>
<path d="M18.948 23.2325L17.948 21.2325C17.824 20.9845 17.524 20.8855 17.277 21.0085C17.03 21.1325 16.93 21.4325 17.053 21.6795L18.053 23.6795C18.141 23.8545 18.317 23.9555 18.5 23.9555C18.575 23.9555 18.651 23.9385 18.724 23.9035C18.971 23.7795 19.071 23.4795 18.948 23.2325Z" fill="#747474"/>
<path d="M20.085 0.0444946C19.575 0.0444946 19.095 0.243479 18.734 0.60451L17.147 2.19151C16.952 2.38651 16.952 2.70353 17.147 2.89853C17.342 3.09353 17.659 3.09353 17.854 2.89853L19.441 1.31251C19.612 1.14053 19.841 1.04551 20.09 1.04551C20.592 1.04551 21 1.45351 21 1.95549V12.4555C21 12.7315 21.224 12.9555 21.5 12.9555C21.776 12.9555 22 12.7315 22.001 12.4545V1.95451C22.001 0.90151 21.145 0.0444946 20.085 0.0444946Z" fill="#747474"/>
<path d="M18.354 2.69148L17.354 1.6915C17.24 1.5775 17.081 1.52448 16.919 1.55148L14.419 1.9615C14.235 1.9915 14.084 2.12148 14.025 2.2975C13.966 2.47351 14.011 2.6695 14.1411 2.80248L17.1411 5.89248C17.2361 5.99148 17.3671 6.0445 17.4991 6.0445C17.5461 6.0445 17.5941 6.03751 17.641 6.0235C17.819 5.97151 17.954 5.82451 17.99 5.6425L18.49 3.14251C18.523 2.97948 18.472 2.81045 18.354 2.69148Z" fill="#747474"/>
<path d="M11.853 6.10255C11.658 5.90755 11.341 5.90755 11.146 6.10255L10.146 7.10254C9.95101 7.29754 9.95101 7.61455 10.146 7.80955C10.244 7.90654 10.372 7.95557 10.5 7.95557C10.628 7.95557 10.756 7.90658 10.853 7.80955L11.853 6.80957C12.048 6.61452 12.048 6.29755 11.853 6.10255Z" fill="#747474"/>
<path d="M13.853 8.10243C13.658 7.90743 13.341 7.90743 13.146 8.10243L12.146 9.10241C11.951 9.29741 11.951 9.61443 12.146 9.80943C12.244 9.90641 12.372 9.95545 12.5 9.95545C12.628 9.95545 12.756 9.90646 12.853 9.80943L13.853 8.80944C14.048 8.61444 14.048 8.29743 13.853 8.10243Z" fill="#747474"/>
<path d="M14.853 5.10249C14.658 4.90749 14.341 4.90749 14.146 5.10249L13.146 6.10247C12.951 6.29747 12.951 6.61449 13.146 6.80949C13.244 6.90648 13.372 6.95551 13.5 6.95551C13.628 6.95551 13.756 6.90652 13.853 6.80949L14.853 5.8095C15.048 5.6145 15.048 5.29749 14.853 5.10249Z" fill="#747474"/>
</g>
<defs>
<clipPath id="clip0_15_53">
<rect width="24" height="24" fill="white"/>
</clipPath>
</defs>
</svg>
