<svg width="23" height="23" viewBox="0 0 23 23" fill="none" xmlns="http://www.w3.org/2000/svg">
<path d="M21.7469 0.000488281H0.906122C0.404923 0.000488281 0 0.405412 0 0.906611V21.7474C0 22.2486 0.404923 22.6535 0.906122 22.6535H21.7469C22.2481 22.6535 22.6531 22.2486 22.6531 21.7474V0.906611C22.6531 0.405412 22.2481 0.000488281 21.7469 0.000488281ZM19.1305 6.61235H17.3211C15.9024 6.61235 15.6278 7.28628 15.6278 8.27735V10.4605H19.0144L18.5727 13.8783H15.6278V22.6535H12.0967V13.8812H9.14334V10.4605H12.0967V7.94039C12.0967 5.01531 13.8835 3.4211 16.4943 3.4211C17.7458 3.4211 18.819 3.51454 19.1333 3.55702V6.61235H19.1305Z" fill="white"/>
</svg>
