<svg width="24" height="23" viewBox="0 0 24 23" fill="none" xmlns="http://www.w3.org/2000/svg">
<path d="M12.1807 7.54941C10.1009 7.54941 8.40362 9.24671 8.40362 11.3265C8.40362 13.4064 10.1009 15.1036 12.1807 15.1036C14.2604 15.1036 15.9577 13.4064 15.9577 11.3265C15.9577 9.24671 14.2604 7.54941 12.1807 7.54941ZM23.509 11.3265C23.509 9.76241 23.5231 8.21246 23.4353 6.65118C23.3475 4.83771 22.9338 3.22825 21.6077 1.90215C20.2788 0.573219 18.6722 0.162355 16.8588 0.074515C15.2947 -0.013325 13.7448 0.000842822 12.1835 0.000842822C10.6194 0.000842822 9.06949 -0.013325 7.50823 0.074515C5.6948 0.162355 4.08537 0.576053 2.7593 1.90215C1.43039 3.23109 1.01953 4.83771 0.931691 6.65118C0.843853 8.2153 0.858021 9.76525 0.858021 11.3265C0.858021 12.8878 0.843853 14.4406 0.931691 16.0019C1.01953 17.8154 1.43322 19.4248 2.7593 20.7509C4.0882 22.0798 5.6948 22.4907 7.50823 22.5785C9.07232 22.6664 10.6222 22.6522 12.1835 22.6522C13.7476 22.6522 15.2975 22.6664 16.8588 22.5785C18.6722 22.4907 20.2816 22.077 21.6077 20.7509C22.9366 19.422 23.3475 17.8154 23.4353 16.0019C23.526 14.4406 23.509 12.8906 23.509 11.3265ZM12.1807 17.1381C8.96465 17.1381 6.36917 14.5426 6.36917 11.3265C6.36917 8.11045 8.96465 5.51493 12.1807 5.51493C15.3967 5.51493 17.9922 8.11045 17.9922 11.3265C17.9922 14.5426 15.3967 17.1381 12.1807 17.1381ZM18.2302 6.63418C17.4793 6.63418 16.8729 6.0278 16.8729 5.27691C16.8729 4.52602 17.4793 3.91964 18.2302 3.91964C18.9811 3.91964 19.5874 4.52602 19.5874 5.27691C19.5876 5.45521 19.5527 5.6318 19.4846 5.79658C19.4164 5.96135 19.3165 6.11106 19.1904 6.23714C19.0643 6.36322 18.9146 6.46319 18.7498 6.53132C18.5851 6.59945 18.4085 6.6344 18.2302 6.63418Z" fill="white"/>
</svg>
