<svg width="90" height="90" viewBox="0 0 90 90" fill="none" xmlns="http://www.w3.org/2000/svg">
<path d="M68.767 8.4375H60.9736C57.6253 8.4375 54.3052 9.54422 51.6277 11.5537C50.1202 12.683 49.2188 14.483 49.2188 16.3687C49.2188 17.0198 49.3242 17.6639 49.5281 18.2742C47.565 19.7466 46.4062 22.0514 46.4062 24.5236C46.4062 25.1606 46.485 25.7977 46.6397 26.4178L48.053 32.0723H48.1627C48.8123 30.5789 50.2973 29.5312 52.0312 29.5312H53.4516C53.5289 27.0239 55.2502 24.8597 57.697 24.2466L59.0625 23.9062C59.0625 25.4602 60.3211 26.7187 61.875 26.7187H73.125C74.6789 26.7187 75.9375 27.9773 75.9375 29.5312H77.3438C79.0734 29.5312 80.5556 30.5747 81.2067 32.0639H81.3656L82.6931 25.425C82.8759 24.5109 82.9688 23.573 82.9688 22.6392C82.9688 14.8078 76.5984 8.4375 68.767 8.4375Z" fill="#71C2B7"/>
<path d="M36.5625 37.9688V23.7066C38.9813 23.078 40.7812 20.8955 40.7812 18.2813V17.6668L24.5588 2.65083L24.473 2.5763C22.552 1.06739 19.7142 0.994268 17.6245 2.65083L1.40625 17.6668V18.2813C1.40625 20.8955 3.20625 23.078 5.625 23.7066V37.9688H36.5625ZM25.3125 35.1563H16.875V28.1251C16.875 25.7991 18.7678 23.9063 21.0938 23.9063C23.4197 23.9063 25.3125 25.7991 25.3125 28.1251V35.1563ZM28.125 35.1563V28.1251C28.125 24.248 24.9708 21.0938 21.0938 21.0938C17.2167 21.0938 14.0625 24.248 14.0625 28.1251V35.1563H8.4375V23.0822L21.0938 10.426L33.75 23.0822V35.1563H28.125ZM4.275 18.8424L19.4498 4.78692C20.3681 4.06271 21.7631 4.05146 22.6955 4.75739L37.9125 18.8424C37.6861 19.9533 36.803 20.828 35.6878 21.0418L21.0938 6.44911L6.49969 21.0432C5.38453 20.8294 4.50141 19.9533 4.275 18.8424Z" fill="#16322E"/>
<path d="M71.3616 52.1353L70.785 50.407C74.5355 49.5492 77.3438 46.1939 77.3438 42.1875V39.375C80.4459 39.375 82.9688 36.8522 82.9688 33.75C82.9688 30.6478 80.4459 28.125 77.3438 28.125H77.085C76.5028 26.4923 74.9559 25.3125 73.125 25.3125H61.875C61.1002 25.3125 60.4688 24.6825 60.4688 23.9062C60.4688 23.13 61.1002 22.5 61.875 22.5H63.2812V19.6875H61.875C59.9428 19.6875 58.3088 20.9939 57.8123 22.7686L57.3567 22.8825C54.7481 23.535 52.8145 25.5923 52.2323 28.125H52.0312C48.9291 28.125 46.4062 30.6478 46.4062 33.75C46.4062 36.8522 48.9291 39.375 52.0312 39.375V42.1875C52.0312 46.1939 54.8395 49.5492 58.59 50.407L57.9797 52.238L47.9236 54.4711C46.8141 54.7186 45.675 54.8438 44.5388 54.8438C44.5373 54.8438 44.5373 54.8438 44.5345 54.8438C39.8869 54.8438 35.512 52.7948 32.5364 49.223L30.9375 47.3034V45C30.9375 42.6741 29.0447 40.7812 26.7188 40.7812H14.0625V42.1875C14.0625 46.0645 17.2167 49.2188 21.0938 49.2188H21.562L22.4634 51.383C26.1886 60.3197 34.8497 66.0938 44.5317 66.0938H49.2188V88.5938H64.5581H66.0938H73.125C81.6539 88.5938 88.5938 81.6539 88.5938 73.125V71.7778C88.5938 61.8708 81.097 53.4192 71.3616 52.1353ZM80.1562 33.75C80.1562 35.3011 78.8948 36.5625 77.3438 36.5625V30.9375C78.8948 30.9375 80.1562 32.1989 80.1562 33.75ZM49.2188 33.75C49.2188 32.1989 50.4802 30.9375 52.0312 30.9375V36.5625C50.4802 36.5625 49.2188 35.3011 49.2188 33.75ZM85.7784 71.7188H80.1562V66.0938H77.3438V72.7945C77.3438 75.5564 75.3666 77.8894 72.6427 78.3422L70.9777 78.6192L70.3013 77.6039C70.2717 77.5589 70.2352 77.5209 70.2056 77.4773C70.8159 76.7025 71.2744 75.8152 71.505 74.8688C72.1912 72.0633 71.1548 69.2114 68.9062 67.5253V57.6562C68.9062 57.2189 68.8205 56.8041 68.6967 56.4075L70.7006 54.9056C79.1747 55.8717 85.7475 63.1462 85.7784 71.7188ZM61.1859 75.4495C60.7317 74.7633 60.4688 73.9603 60.4688 73.125C60.4688 71.6231 61.2591 70.2661 62.5823 69.4955L63.2812 69.0891V57.6562C63.2812 56.88 63.9127 56.25 64.6875 56.25C65.4623 56.25 66.0938 56.88 66.0938 57.6562V69.0891L66.7927 69.4955C68.4591 70.4644 69.2353 72.3122 68.7741 74.2036C68.6573 74.6831 68.4352 75.1373 68.1469 75.5508C67.0809 74.8997 65.8491 74.5312 64.5581 74.5312C63.3277 74.5312 62.1872 74.8814 61.1859 75.4495ZM67.8923 50.625L68.6573 52.9214L67.0219 54.1477C66.3539 53.7005 65.5509 53.4375 64.6875 53.4375C63.8241 53.4375 63.0211 53.7005 62.3517 54.1477L60.7162 52.9214L61.4827 50.625H67.8923ZM54.8438 42.1875V29.7042C54.8438 27.772 56.1488 26.0944 58.0191 25.6162C58.6758 27.0928 60.1566 28.125 61.875 28.125H73.125C73.8998 28.125 74.5312 28.755 74.5312 29.5312V42.1875C74.5312 45.2897 72.0084 47.8125 68.9062 47.8125H60.4688C57.3666 47.8125 54.8438 45.2897 54.8438 42.1875ZM17.1155 43.5938H26.7188C27.4936 43.5938 28.125 44.2237 28.125 45V46.4062H21.0938C19.26 46.4062 17.6962 45.2306 17.1155 43.5938ZM25.0608 50.3016L24.6094 49.2188H28.8717L30.375 51.023C33.0708 54.2573 36.7411 56.4202 40.7798 57.2569V62.9339C33.8077 61.6852 27.855 57.0094 25.0608 50.3016ZM49.2188 60.4688V63.2812H44.5317C44.2167 63.2812 43.9059 63.2602 43.5938 63.2461V57.6028C43.9073 57.6183 44.2181 57.6548 44.5345 57.6548H44.5388C45.8803 57.6548 47.2233 57.5086 48.5325 57.2161L58.7348 54.9492L60.4688 56.25H57.6562V59.0625H60.4688V61.875H54.8438V64.6875H60.4688V67.5295C58.7166 68.85 57.6562 70.927 57.6562 73.125C57.6562 74.6466 58.1583 76.1119 59.0527 77.3156C58.1878 78.4688 57.6562 79.8848 57.6562 81.4331V81.6919C57.6562 83.2275 58.178 84.6338 59.0288 85.7812H52.0312V60.4688H49.2188ZM73.125 85.7812H66.0938H64.5581C62.3039 85.7812 60.4688 83.9461 60.4688 81.6919V81.4331C60.4688 79.1789 62.3039 77.3438 64.5581 77.3438C65.9292 77.3438 67.2005 78.0244 67.9613 79.1648L69.6473 81.6933L73.1053 81.1167C76.6027 80.5345 79.2633 77.8795 79.9608 74.5312H85.6983C84.9966 80.8495 79.6275 85.7812 73.125 85.7812Z" fill="#16322E"/>
<path d="M71.7188 37.9688V36.5625H57.6562V37.9688C57.6562 41.8458 60.8105 45 64.6875 45C68.5645 45 71.7188 41.8458 71.7188 37.9688ZM60.7092 39.375H68.6644C68.0836 41.0119 66.5198 42.1875 64.6861 42.1875C62.8523 42.1875 61.29 41.0119 60.7092 39.375Z" fill="#16322E"/>
<path d="M70.3125 33.75C71.0892 33.75 71.7188 33.1204 71.7188 32.3437C71.7188 31.5671 71.0892 30.9375 70.3125 30.9375C69.5358 30.9375 68.9062 31.5671 68.9062 32.3437C68.9062 33.1204 69.5358 33.75 70.3125 33.75Z" fill="#16322E"/>
<path d="M59.0625 33.75C59.8392 33.75 60.4688 33.1204 60.4688 32.3437C60.4688 31.5671 59.8392 30.9375 59.0625 30.9375C58.2858 30.9375 57.6562 31.5671 57.6562 32.3437C57.6562 33.1204 58.2858 33.75 59.0625 33.75Z" fill="#16322E"/>
</svg>
