<svg width="24" height="23" viewBox="0 0 24 23" fill="none" xmlns="http://www.w3.org/2000/svg">
<path d="M22.4612 0H1.62036C1.11916 0 0.714233 0.404923 0.714233 0.906122V21.7469C0.714233 22.2481 1.11916 22.6531 1.62036 22.6531H22.4612C22.9624 22.6531 23.3673 22.2481 23.3673 21.7469V0.906122C23.3673 0.404923 22.9624 0 22.4612 0ZM7.4337 19.3032H4.07255V8.49207H7.4337V19.3032ZM5.75454 7.01395C5.36923 7.01395 4.99257 6.8997 4.6722 6.68563C4.35182 6.47156 4.10212 6.1673 3.95467 5.81132C3.80722 5.45534 3.76864 5.06363 3.84381 4.68572C3.91898 4.30782 4.10452 3.96069 4.37698 3.68823C4.64944 3.41578 4.99657 3.23023 5.37447 3.15506C5.75238 3.07989 6.14409 3.11847 6.50007 3.26592C6.85605 3.41337 7.16031 3.66308 7.37438 3.98345C7.58845 4.30382 7.7027 4.68048 7.7027 5.06579C7.69987 6.14181 6.82773 7.01395 5.75454 7.01395ZM20.0175 19.3032H16.6592V14.0449C16.6592 12.7905 16.6365 11.1793 14.912 11.1793C13.1649 11.1793 12.8959 12.5441 12.8959 13.9543V19.3032H9.54043V8.49207H12.7628V9.97018H12.8081C13.2555 9.12069 14.3514 8.22306 15.9881 8.22306C19.3917 8.22306 20.0175 10.4629 20.0175 13.3738V19.3032Z" fill="white"/>
</svg>
