<svg width="27" height="20" viewBox="0 0 27 20" fill="none" xmlns="http://www.w3.org/2000/svg">
<path d="M26.4484 3.46571C26.298 2.89469 26.003 2.37395 25.593 1.95562C25.183 1.53728 24.6724 1.23601 24.1123 1.08197C22.0505 0.516846 13.7857 0.516846 13.7857 0.516846C13.7857 0.516846 5.52087 0.516846 3.45909 1.07896C2.89872 1.23251 2.38786 1.5336 1.97781 1.95202C1.56775 2.37043 1.27295 2.89144 1.12299 3.46271C0.571411 5.56689 0.571411 9.95562 0.571411 9.95562C0.571411 9.95562 0.571411 14.3444 1.12299 16.4455C1.4268 17.6058 2.32348 18.5197 3.45909 18.8293C5.52087 19.3944 13.7857 19.3944 13.7857 19.3944C13.7857 19.3944 22.0505 19.3944 24.1123 18.8293C25.2509 18.5197 26.1446 17.6058 26.4484 16.4455C27 14.3444 27 9.95562 27 9.95562C27 9.95562 27 5.56689 26.4484 3.46571ZM11.1605 13.9836V5.92761L18.0037 9.92556L11.1605 13.9836Z" fill="white"/>
</svg>
